<svg xmlns="http://www.w3.org/2000/svg" viewBox="0 0 512 512" width="512" height="512">
  <!-- Background -->
  <rect width="512" height="512" fill="#2563eb" rx="64"/>

  <!-- Calendar grid background -->
  <rect x="64" y="96" width="384" height="320" fill="#ffffff" rx="16"/>

  <!-- Calendar header -->
  <rect x="64" y="96" width="384" height="64" fill="#f3f4f6" rx="16"/>
  <text x="256" y="140" font-family="Arial, sans-serif" font-size="28" font-weight="bold" text-anchor="middle" fill="#1f2937">FPUNA</text>

  <!-- Days of week -->
  <text x="112" y="200" font-family="Arial, sans-serif" font-size="18" font-weight="bold" text-anchor="middle" fill="#6b7280">L</text>
  <text x="176" y="200" font-family="Arial, sans-serif" font-size="18" font-weight="bold" text-anchor="middle" fill="#6b7280">M</text>
  <text x="240" y="200" font-family="Arial, sans-serif" font-size="18" font-weight="bold" text-anchor="middle" fill="#6b7280">M</text>
  <text x="304" y="200" font-family="Arial, sans-serif" font-size="18" font-weight="bold" text-anchor="middle" fill="#6b7280">J</text>
  <text x="368" y="200" font-family="Arial, sans-serif" font-size="18" font-weight="bold" text-anchor="middle" fill="#6b7280">V</text>
  <text x="432" y="200" font-family="Arial, sans-serif" font-size="18" font-weight="bold" text-anchor="middle" fill="#6b7280">S</text>

  <!-- Calendar dates -->
  <circle cx="112" cy="240" r="16" fill="#2563eb"/>
  <text x="112" y="248" font-family="Arial, sans-serif" font-size="14" font-weight="bold" text-anchor="middle" fill="#ffffff">1</text>

  <circle cx="176" cy="240" r="16" fill="#2563eb"/>
  <text x="176" y="248" font-family="Arial, sans-serif" font-size="14" font-weight="bold" text-anchor="middle" fill="#ffffff">2</text>

  <circle cx="240" cy="280" r="16" fill="#ef4444"/>
  <text x="240" y="288" font-family="Arial, sans-serif" font-size="14" font-weight="bold" text-anchor="middle" fill="#ffffff">15</text>

  <!-- Clock icon -->
  <circle cx="384" cy="320" r="24" fill="#2563eb"/>
  <circle cx="384" cy="320" r="20" fill="none" stroke="#ffffff" stroke-width="2"/>
  <line x1="384" y1="308" x2="384" y2="320" stroke="#ffffff" stroke-width="2" stroke-linecap="round"/>
  <line x1="384" y1="320" x2="392" y2="328" stroke="#ffffff" stroke-width="2" stroke-linecap="round"/>

  <!-- Book icon -->
  <rect x="112" y="320" width="32" height="40" fill="#2563eb" rx="4"/>
  <rect x="120" y="320" width="24" height="4" fill="#ffffff"/>
  <rect x="120" y="328" width="16" height="4" fill="#ffffff"/>
  <rect x="120" y="336" width="20" height="4" fill="#ffffff"/>
  <rect x="120" y="344" width="12" height="4" fill="#ffffff"/>
</svg>